<svg xmlns="http://www.w3.org/2000/svg" xmlns:xlink="http://www.w3.org/1999/xlink" width="4948" zoomAndPan="magnify" viewBox="0 0 3710.88 2062.499939" height="2750" preserveAspectRatio="xMidYMid meet" version="1.0"><defs><g/><clipPath id="e5d9205ed8"><rect x="0" width="704" y="0" height="1498"/></clipPath><clipPath id="afc73a3699"><rect x="0" width="2149" y="0" height="837"/></clipPath><clipPath id="12c92385e6"><rect x="0" width="704" y="0" height="1498"/></clipPath></defs><g transform="matrix(1, 0, 0, 1, 310, 178)"><g clip-path="url(#e5d9205ed8)"><g fill="#ac663e" fill-opacity="1"><g transform="translate(0.75626, 1099.849042)"><g><path d="M 116.90625 0 L 116.90625 -724.1875 L 392.09375 -724.1875 C 458.988281 -724.1875 512.265625 -707.113281 551.921875 -672.96875 C 591.585938 -638.832031 611.421875 -593.140625 611.421875 -535.890625 C 611.421875 -496.578125 601.59375 -462.78125 581.9375 -434.5 C 562.28125 -406.226562 534.863281 -385.882812 499.6875 -373.46875 C 541.757812 -361.050781 574.347656 -339.671875 597.453125 -309.328125 C 620.554688 -278.984375 632.109375 -241.738281 632.109375 -197.59375 C 632.109375 -136.90625 611.585938 -88.800781 570.546875 -53.28125 C 529.515625 -17.757812 473.820312 0 403.46875 0 Z M 180.015625 -58.96875 L 401.40625 -58.96875 C 453.820312 -58.96875 494.6875 -71.378906 524 -96.203125 C 553.3125 -121.035156 567.96875 -155.523438 567.96875 -199.671875 C 567.96875 -244.492188 553.140625 -279.144531 523.484375 -303.625 C 493.828125 -328.113281 452.097656 -340.359375 398.296875 -340.359375 L 180.015625 -340.359375 Z M 180.015625 -398.296875 L 390.03125 -398.296875 C 439.6875 -398.296875 478.304688 -410.019531 505.890625 -433.46875 C 533.484375 -456.925781 547.28125 -489.6875 547.28125 -531.75 C 547.28125 -573.132812 533.484375 -605.722656 505.890625 -629.515625 C 478.304688 -653.316406 440.03125 -665.21875 391.0625 -665.21875 L 180.015625 -665.21875 Z M 180.015625 -398.296875 "/></g></g></g></g></g><g transform="matrix(1, 0, 0, 1, 1282, 681)"><g clip-path="url(#afc73a3699)"><g fill="#ac663e" fill-opacity="1"><g transform="translate(0.499288, 306.351363)"><g><path d="M 181.6875 -72.09375 C 181.6875 -48.59375 173.992188 -30.007812 158.609375 -16.34375 C 144.085938 -3.519531 124.757812 2.890625 100.625 2.890625 C 76.269531 2.890625 56.828125 -3.519531 42.296875 -16.34375 C 26.910156 -30.007812 19.21875 -48.59375 19.21875 -72.09375 L 19.21875 -217.890625 L 41.65625 -217.890625 L 41.65625 -68.890625 C 41.65625 -52.441406 47.632812 -39.835938 59.59375 -31.078125 C 69.851562 -23.390625 83.53125 -19.546875 100.625 -19.546875 C 127.320312 -19.546875 145.265625 -28.519531 154.453125 -46.46875 C 157.648438 -52.65625 159.25 -60.128906 159.25 -68.890625 L 159.25 -217.890625 L 181.6875 -217.890625 Z M 181.6875 -72.09375 "/></g></g></g><g fill="#ac663e" fill-opacity="1"><g transform="translate(365.125168, 306.351363)"><g><path d="M 6.40625 -197.703125 L 6.40625 -218.53125 L 134.578125 -218.53125 L 134.578125 -197.703125 L 81.71875 -197.703125 L 81.71875 -0.640625 L 59.28125 -0.640625 L 59.28125 -197.703125 Z M 6.40625 -197.703125 "/></g></g></g><g fill="#ac663e" fill-opacity="1"><g transform="translate(669.84208, 306.351363)"><g><path d="M 46.46875 -22.4375 L 124.328125 -22.4375 L 124.328125 0 L 24.03125 0 L 24.03125 -217.890625 L 46.46875 -217.890625 Z M 46.46875 -22.4375 "/></g></g></g><g fill="#ac663e" fill-opacity="1"><g transform="translate(964.307193, 306.351363)"><g><path d="M 153.484375 0 L 24.03125 0 L 24.03125 -217.890625 L 153.484375 -217.890625 L 153.484375 -197.0625 L 46.46875 -197.0625 L 46.46875 -119.515625 L 150.28125 -119.515625 L 150.28125 -98.375 L 46.46875 -98.375 L 46.46875 -20.828125 L 153.484375 -20.828125 Z M 153.484375 0 "/></g></g></g><g fill="#ac663e" fill-opacity="1"><g transform="translate(1305.546117, 306.351363)"><g><path d="M 46.46875 -107.671875 L 97.09375 -107.671875 C 109.695312 -107.671875 120.054688 -111.941406 128.171875 -120.484375 C 136.503906 -129.242188 140.671875 -140.03125 140.671875 -152.84375 C 140.671875 -165.445312 136.71875 -175.914062 128.8125 -184.25 C 120.90625 -192.363281 110.332031 -196.421875 97.09375 -196.421875 L 46.46875 -196.421875 Z M 163.109375 -152.203125 C 163.109375 -133.191406 156.378906 -117.382812 142.921875 -104.78125 C 130.953125 -93.675781 116.53125 -87.585938 99.65625 -86.515625 L 166.625 0 L 136.5 0 L 72.734375 -86.203125 L 46.46875 -86.203125 L 46.46875 0 L 24.03125 0 L 24.03125 -217.890625 L 93.890625 -217.890625 C 113.328125 -217.890625 129.671875 -211.800781 142.921875 -199.625 C 156.378906 -186.8125 163.109375 -171.003906 163.109375 -152.203125 Z M 163.109375 -152.203125 "/></g></g></g><g fill="#ac663e" fill-opacity="1"><g transform="translate(0.499288, 754.889131)"><g><path d="M 181.6875 -72.09375 C 181.6875 -48.59375 173.992188 -30.007812 158.609375 -16.34375 C 144.085938 -3.519531 124.757812 2.890625 100.625 2.890625 C 76.269531 2.890625 56.828125 -3.519531 42.296875 -16.34375 C 26.910156 -30.007812 19.21875 -48.59375 19.21875 -72.09375 L 19.21875 -217.890625 L 41.65625 -217.890625 L 41.65625 -68.890625 C 41.65625 -52.441406 47.632812 -39.835938 59.59375 -31.078125 C 69.851562 -23.390625 83.53125 -19.546875 100.625 -19.546875 C 127.320312 -19.546875 145.265625 -28.519531 154.453125 -46.46875 C 157.648438 -52.65625 159.25 -60.128906 159.25 -68.890625 L 159.25 -217.890625 L 181.6875 -217.890625 Z M 181.6875 -72.09375 "/></g></g></g><g fill="#ac663e" fill-opacity="1"><g transform="translate(365.125168, 754.889131)"><g><path d="M 46.46875 -107.671875 L 97.09375 -107.671875 C 109.695312 -107.671875 120.054688 -111.941406 128.171875 -120.484375 C 136.503906 -129.242188 140.671875 -140.03125 140.671875 -152.84375 C 140.671875 -165.445312 136.71875 -175.914062 128.8125 -184.25 C 120.90625 -192.363281 110.332031 -196.421875 97.09375 -196.421875 L 46.46875 -196.421875 Z M 163.109375 -152.203125 C 163.109375 -133.191406 156.378906 -117.382812 142.921875 -104.78125 C 130.953125 -93.675781 116.53125 -87.585938 99.65625 -86.515625 L 166.625 0 L 136.5 0 L 72.734375 -86.203125 L 46.46875 -86.203125 L 46.46875 0 L 24.03125 0 L 24.03125 -217.890625 L 93.890625 -217.890625 C 113.328125 -217.890625 129.671875 -211.800781 142.921875 -199.625 C 156.378906 -186.8125 163.109375 -171.003906 163.109375 -152.203125 Z M 163.109375 -152.203125 "/></g></g></g><g fill="#ac663e" fill-opacity="1"><g transform="translate(703.16041, 754.889131)"><g><path d="M 239.046875 -101.90625 L 236.796875 -88.4375 C 232.097656 -61.945312 219.175781 -40.160156 198.03125 -23.078125 C 176.882812 -5.984375 153.066406 2.5625 126.578125 2.5625 C 111.191406 2.5625 96.664062 -0.425781 83 -6.40625 C 69.320312 -12.175781 57.460938 -20.1875 47.421875 -30.4375 C 37.171875 -40.476562 29.160156 -52.335938 23.390625 -66.015625 C 17.410156 -79.679688 14.421875 -94.3125 14.421875 -109.90625 C 14.421875 -125.289062 17.410156 -139.816406 23.390625 -153.484375 C 29.160156 -167.160156 37.171875 -179.125 47.421875 -189.375 C 57.460938 -199.414062 69.320312 -207.425781 83 -213.40625 C 96.664062 -219.175781 110.441406 -222.0625 124.328125 -222.0625 C 150.390625 -222.0625 173.351562 -214.691406 193.21875 -199.953125 C 213.300781 -185.210938 226.972656 -165.773438 234.234375 -141.640625 L 210.53125 -141.640625 C 203.6875 -159.367188 192.679688 -173.46875 177.515625 -183.9375 C 162.140625 -194.394531 145.160156 -199.625 126.578125 -199.625 C 101.796875 -199.625 80.644531 -190.867188 63.125 -173.359375 C 45.601562 -155.835938 36.84375 -134.6875 36.84375 -109.90625 C 36.84375 -85.34375 45.601562 -64.195312 63.125 -46.46875 C 80.425781 -28.726562 101.578125 -19.859375 126.578125 -19.859375 C 146.222656 -19.859375 164.164062 -25.519531 180.40625 -36.84375 C 196.425781 -48.382812 207.640625 -63.554688 214.046875 -82.359375 L 125.609375 -82.359375 L 125.609375 -101.90625 Z M 239.046875 -101.90625 "/></g></g></g><g fill="#ac663e" fill-opacity="1"><g transform="translate(1120.3267, 754.889131)"><g><path d="M 153.484375 0 L 24.03125 0 L 24.03125 -217.890625 L 153.484375 -217.890625 L 153.484375 -197.0625 L 46.46875 -197.0625 L 46.46875 -119.515625 L 150.28125 -119.515625 L 150.28125 -98.375 L 46.46875 -98.375 L 46.46875 -20.828125 L 153.484375 -20.828125 Z M 153.484375 0 "/></g></g></g><g fill="#ac663e" fill-opacity="1"><g transform="translate(1461.565623, 754.889131)"><g><path d="M 46.46875 -107.671875 L 97.09375 -107.671875 C 109.695312 -107.671875 120.054688 -111.941406 128.171875 -120.484375 C 136.503906 -129.242188 140.671875 -140.03125 140.671875 -152.84375 C 140.671875 -165.445312 136.71875 -175.914062 128.8125 -184.25 C 120.90625 -192.363281 110.332031 -196.421875 97.09375 -196.421875 L 46.46875 -196.421875 Z M 163.109375 -152.203125 C 163.109375 -133.191406 156.378906 -117.382812 142.921875 -104.78125 C 130.953125 -93.675781 116.53125 -87.585938 99.65625 -86.515625 L 166.625 0 L 136.5 0 L 72.734375 -86.203125 L 46.46875 -86.203125 L 46.46875 0 L 24.03125 0 L 24.03125 -217.890625 L 93.890625 -217.890625 C 113.328125 -217.890625 129.671875 -211.800781 142.921875 -199.625 C 156.378906 -186.8125 163.109375 -171.003906 163.109375 -152.203125 Z M 163.109375 -152.203125 "/></g></g></g><g fill="#ac663e" fill-opacity="1"><g transform="translate(1799.600968, 754.889131)"><g><path d="M 84.59375 -102.859375 C 40.15625 -113.109375 17.9375 -132.117188 17.9375 -159.890625 C 17.9375 -180.398438 25.09375 -195.785156 39.40625 -206.046875 C 53.726562 -216.085938 70.5 -221.109375 89.71875 -221.109375 C 132.226562 -221.109375 157.4375 -205.296875 165.34375 -173.671875 L 141 -173.671875 C 136.71875 -192.472656 119.625 -201.875 89.71875 -201.875 C 68.78125 -201.875 54.148438 -195.679688 45.828125 -183.296875 C 42.617188 -178.585938 41.015625 -172.710938 41.015625 -165.671875 C 41.015625 -152.210938 48.28125 -141.847656 62.8125 -134.578125 C 69.644531 -130.953125 84.171875 -126.253906 106.390625 -120.484375 C 128.597656 -114.710938 144.722656 -108.304688 154.765625 -101.265625 C 168.648438 -91.429688 175.59375 -77.648438 175.59375 -59.921875 C 175.59375 -37.921875 166.941406 -21.257812 149.640625 -9.9375 C 135.117188 -0.53125 117.175781 4.171875 95.8125 4.171875 C 47.53125 4.171875 19.546875 -14.203125 11.859375 -50.953125 L 38.453125 -50.953125 C 42.515625 -27.878906 61.632812 -16.34375 95.8125 -16.34375 C 120.164062 -16.34375 137.148438 -23.070312 146.765625 -36.53125 C 150.609375 -41.875 152.53125 -49.132812 152.53125 -58.3125 C 152.53125 -67.289062 149.003906 -74.664062 141.953125 -80.4375 C 131.910156 -88.550781 112.789062 -96.023438 84.59375 -102.859375 Z M 84.59375 -102.859375 "/></g></g></g></g></g><g transform="matrix(1, 0, 0, 1, 526, 380)"><g clip-path="url(#12c92385e6)"><g fill="#ac663e" fill-opacity="1"><g transform="translate(0.957074, 1100.49701)"><g><path d="M 116.90625 0 L 116.90625 -724.1875 L 392.09375 -724.1875 C 458.988281 -724.1875 512.265625 -707.113281 551.921875 -672.96875 C 591.585938 -638.832031 611.421875 -593.140625 611.421875 -535.890625 C 611.421875 -496.578125 601.59375 -462.78125 581.9375 -434.5 C 562.28125 -406.226562 534.863281 -385.882812 499.6875 -373.46875 C 541.757812 -361.050781 574.347656 -339.671875 597.453125 -309.328125 C 620.554688 -278.984375 632.109375 -241.738281 632.109375 -197.59375 C 632.109375 -136.90625 611.585938 -88.800781 570.546875 -53.28125 C 529.515625 -17.757812 473.820312 0 403.46875 0 Z M 180.015625 -58.96875 L 401.40625 -58.96875 C 453.820312 -58.96875 494.6875 -71.378906 524 -96.203125 C 553.3125 -121.035156 567.96875 -155.523438 567.96875 -199.671875 C 567.96875 -244.492188 553.140625 -279.144531 523.484375 -303.625 C 493.828125 -328.113281 452.097656 -340.359375 398.296875 -340.359375 L 180.015625 -340.359375 Z M 180.015625 -398.296875 L 390.03125 -398.296875 C 439.6875 -398.296875 478.304688 -410.019531 505.890625 -433.46875 C 533.484375 -456.925781 547.28125 -489.6875 547.28125 -531.75 C 547.28125 -573.132812 533.484375 -605.722656 505.890625 -629.515625 C 478.304688 -653.316406 440.03125 -665.21875 391.0625 -665.21875 L 180.015625 -665.21875 Z M 180.015625 -398.296875 "/></g></g></g></g></g></svg>